<svg width="20" height="20" viewBox="0 0 20 20" fill="none" xmlns="http://www.w3.org/2000/svg">
<path d="M10 4.05767e-06C8.02219 4.05767e-06 6.08879 0.586494 4.4443 1.68531C2.79981 2.78412 1.51809 4.34591 0.761209 6.17317C0.00433284 8.00043 -0.1937 10.0111 0.192152 11.9509C0.578004 13.8907 1.53041 15.6725 2.92894 17.0711C4.32746 18.4696 6.10929 19.422 8.0491 19.8078C9.98891 20.1937 11.9996 19.9957 13.8268 19.2388C15.6541 18.4819 17.2159 17.2002 18.3147 15.5557C19.4135 13.9112 20 11.9778 20 10C20.0012 8.68645 19.7433 7.38556 19.2412 6.17177C18.7391 4.95798 18.0025 3.85512 17.0737 2.92629C16.1449 1.99747 15.042 1.26092 13.8282 0.758797C12.6144 0.25667 11.3136 -0.00117974 10 4.05767e-06ZM15 13.59L13.59 15L10 11.41L6.41 15L5 13.59L8.59 10L5 6.41L6.41 5L10 8.59L13.59 5L15 6.41L11.41 10L15 13.59Z" fill="#838387"/>
</svg>
