<svg width="8" height="11" viewBox="0 0 8 11" fill="currentColor" xmlns="http://www.w3.org/2000/svg">
<path d="M7.5 4C7.5 3.54037 7.40947 3.08525 7.23358 2.66061C7.05769 2.23597 6.79988 1.85013 6.47487 1.52513C6.14987 1.20012 5.76403 0.942313 5.33939 0.766422C4.91475 0.59053 4.45963 0.5 4 0.5C3.54037 0.5 3.08525 0.59053 2.66061 0.766422C2.23597 0.942313 1.85013 1.20012 1.52513 1.52513C1.20012 1.85013 0.942313 2.23597 0.766422 2.66061C0.59053 3.08525 0.5 3.54037 0.5 4C0.5 4.6935 0.7045 5.3385 1.0525 5.8825H1.0485L4 10.5L6.9515 5.8825H6.948C7.30846 5.3208 7.50005 4.66741 7.5 4ZM4 5.5C3.60218 5.5 3.22064 5.34197 2.93934 5.06066C2.65804 4.77936 2.5 4.39783 2.5 4C2.5 3.60218 2.65804 3.22064 2.93934 2.93934C3.22064 2.65804 3.60218 2.5 4 2.5C4.39782 2.5 4.77936 2.65804 5.06066 2.93934C5.34196 3.22064 5.5 3.60218 5.5 4C5.5 4.39783 5.34196 4.77936 5.06066 5.06066C4.77936 5.34197 4.39782 5.5 4 5.5Z" fill="currentColor"/>
</svg>
