<svg width="24" height="24" viewBox="0 0 24 24" fill="none" xmlns="http://www.w3.org/2000/svg">
<path d="M12.0003 7.3335C13.238 7.3335 14.425 7.82516 15.3001 8.70033C16.1753 9.5755 16.667 10.7625 16.667 12.0002C16.667 13.2378 16.1753 14.4248 15.3001 15.3C14.425 16.1752 13.238 16.6668 12.0003 16.6668C10.7626 16.6668 9.57564 16.1752 8.70047 15.3C7.8253 14.4248 7.33363 13.2378 7.33363 12.0002C7.33363 10.7625 7.8253 9.5755 8.70047 8.70033C9.57564 7.82516 10.7626 7.3335 12.0003 7.3335ZM12.0003 9.66683C11.3815 9.66683 10.788 9.91266 10.3504 10.3502C9.9128 10.7878 9.66697 11.3813 9.66697 12.0002C9.66697 12.619 9.9128 13.2125 10.3504 13.6501C10.788 14.0877 11.3815 14.3335 12.0003 14.3335C12.6191 14.3335 13.2126 14.0877 13.6502 13.6501C14.0878 13.2125 14.3336 12.619 14.3336 12.0002C14.3336 11.3813 14.0878 10.7878 13.6502 10.3502C13.2126 9.91266 12.6191 9.66683 12.0003 9.66683ZM9.66697 23.6668C9.3753 23.6668 9.1303 23.4568 9.08363 23.1768L8.65197 20.0852C7.91697 19.7935 7.28697 19.3968 6.6803 18.9302L3.7753 20.1085C3.51863 20.2018 3.20363 20.1085 3.06363 19.8518L0.730301 15.8152C0.578634 15.5585 0.648634 15.2435 0.870301 15.0685L3.33197 13.1318L3.2503 12.0002L3.33197 10.8335L0.870301 8.93183C0.648634 8.75683 0.578634 8.44183 0.730301 8.18516L3.06363 4.1485C3.20363 3.89183 3.51863 3.78683 3.7753 3.89183L6.6803 5.0585C7.28697 4.6035 7.91697 4.20683 8.65197 3.91516L9.08363 0.823496C9.1303 0.543496 9.3753 0.333496 9.66697 0.333496H14.3336C14.6253 0.333496 14.8703 0.543496 14.917 0.823496L15.3486 3.91516C16.0836 4.20683 16.7136 4.6035 17.3203 5.0585L20.2253 3.89183C20.482 3.78683 20.797 3.89183 20.937 4.1485L23.2703 8.18516C23.422 8.44183 23.352 8.75683 23.1303 8.93183L20.6686 10.8335L20.7503 12.0002L20.6686 13.1668L23.1303 15.0685C23.352 15.2435 23.422 15.5585 23.2703 15.8152L20.937 19.8518C20.797 20.1085 20.482 20.2135 20.2253 20.1085L17.3203 18.9418C16.7136 19.3968 16.0836 19.7935 15.3486 20.0852L14.917 23.1768C14.8703 23.4568 14.6253 23.6668 14.3336 23.6668H9.66697ZM11.1253 2.66683L10.6936 5.71183C9.29363 6.0035 8.05697 6.75016 7.15863 7.7885L4.34697 6.57516L3.47197 8.09183L5.93363 9.90016C5.46697 11.2652 5.46697 12.7468 5.93363 14.1002L3.4603 15.9202L4.3353 17.4368L7.1703 16.2235C8.06863 17.2502 9.29363 17.9968 10.682 18.2768L11.1136 21.3335H12.887L13.3186 18.2885C14.707 17.9968 15.932 17.2502 16.8303 16.2235L19.6653 17.4368L20.5403 15.9202L18.067 14.1118C18.5336 12.7468 18.5336 11.2652 18.067 9.90016L20.5286 8.09183L19.6536 6.57516L16.842 7.7885C15.9436 6.75016 14.707 6.0035 13.307 5.7235L12.8753 2.66683H11.1253Z" fill="black"/>
</svg>
